# xmcd
#
# Track frame offsets:
#	150
#	13107
#	25385
#	38272
#	53157
#	73417
#	98922
#	115090
#	129000
#	145665
#	168362
#
# Disc length: 2595 seconds
#
# Revision: 1
# Processed by: cddbd v1.5.2PL0 Copyright (c) Steve Scherf et al.
# Submitted via: MusicManager 7.3.0.0 
#
DISCID=890a210b
DTITLE=Jeff Beck - 21 Sucessos - Disk 01
DYEAR=1133
DGENRE=Blues
TTITLE0=Hi-Ho Silver Lining
TTITLE1=Tallyman
TTITLE2=Beck´s Bolero
TTITLE3=Shapes Of Things
TTITLE4=She´s A Woman
TTITLE5=Scatterbrain
TTITLE6=Get Working
TTITLE7=Plynth (Water Down The Drain)
TTITLE8=Back on the Streets
TTITLE9=Definitely Maybe
TTITLE10=New Ways Train Vain
EXTD=YEAR: 1999
EXTT0=
EXTT1=
EXTT2=
EXTT3=
EXTT4=
EXTT5=
EXTT6=
EXTT7=
EXTT8=
EXTT9=
EXTT10=
PLAYORDER=
